<svg xmlns="http://www.w3.org/2000/svg" viewBox="0 0 640 360" role="img" aria-label="International current affairs">
  <defs><linearGradient id="bg" x1="0" y1="0" x2="1" y2="1"><stop stop-color="#eff6ff"/><stop offset="1" stop-color="#bae6fd"/></linearGradient><linearGradient id="globe" x1="0" y1="0" x2="1" y2="1"><stop stop-color="#38bdf8"/><stop offset="1" stop-color="#2563eb"/></linearGradient></defs>
  <rect width="640" height="360" rx="28" fill="url(#bg)"/><circle cx="320" cy="180" r="132" fill="url(#globe)"/><ellipse cx="320" cy="180" rx="57" ry="132" fill="none" stroke="#fff" stroke-width="9" opacity=".78"/><path d="M194 139h252M190 215h260M320 48v264" fill="none" stroke="#fff" stroke-width="9" opacity=".78"/>
  <path d="m256 91 36 12 16 30-18 22-35-8-22-29 23-27Zm130 80 38 15-3 37-31 37-31-7-4-38 31-44Zm-120 70 29 11 16 45-43-11-21-27 19-18Z" fill="#16a34a" opacity=".88"/>
  <circle cx="111" cy="86" r="28" fill="#fff" opacity=".7"/><circle cx="535" cy="276" r="42" fill="#fff" opacity=".55"/>
</svg>
